<svg width="252" height="58" viewBox="0 0 252 58" fill="none" xmlns="http://www.w3.org/2000/svg">
<path d="M4.12132 46.0381C2.0104 46.0381 0 47.747 0 50.461C0 53.2756 2.0104 54.9844 4.32236 54.9844C6.43328 54.9844 7.74004 53.7782 8.14211 52.2704L6.23224 51.6672C5.93068 52.3709 5.42808 52.974 4.32236 52.974C3.21664 52.974 2.21144 52.1698 2.21144 51.0641H8.24263V50.3605C8.24263 47.6465 6.73484 46.0381 4.12132 46.0381ZM2.31196 49.5563C2.41248 48.7522 3.0156 47.948 4.22184 47.948C5.5286 47.948 6.0312 48.7522 6.13172 49.5563H2.31196ZM17.4905 46.2392H14.877L13.2686 48.7522C12.9671 48.2496 11.8614 46.7418 11.5598 46.2392H8.84575L11.8614 50.461L8.84575 54.6828H11.3588C11.6603 54.1802 12.766 52.5719 13.0676 52.0693L14.877 54.6828H17.591L14.5754 50.3605L17.4905 46.2392ZM23.7227 46.1387C22.4159 46.1387 21.5113 46.7418 21.1092 47.3449V46.3397H18.8977V58H21.2097V53.9792C21.6118 54.5823 22.5165 54.9844 23.6222 54.9844C26.0347 54.9844 27.5425 53.0745 27.5425 50.5615C27.5425 47.948 26.1352 46.1387 23.7227 46.1387ZM23.2201 52.8735C22.0139 52.8735 21.1092 51.9688 21.1092 50.461C21.1092 48.9532 22.0139 48.1491 23.2201 48.1491C24.4263 48.1491 25.331 49.0537 25.331 50.461C25.331 51.9688 24.4263 52.8735 23.2201 52.8735ZM33.0711 46.0381C30.9601 46.0381 28.9497 47.747 28.9497 50.461C28.9497 53.2756 30.9601 54.9844 33.2721 54.9844C35.383 54.9844 36.6898 53.7782 37.0919 52.2704L35.182 51.7678C34.8804 52.4714 34.3778 53.0745 33.2721 53.0745C32.1664 52.974 31.1612 52.1698 31.1612 51.0641H37.1924V50.3605C37.1924 47.6465 35.6846 46.0381 33.0711 46.0381ZM31.1612 49.5563C31.2617 48.7522 31.8648 47.948 33.0711 47.948C34.3778 47.948 34.8804 48.7522 34.9809 49.5563H31.1612ZM41.2132 47.5459V46.3397H39.0017V54.7834H41.3137V50.9636C41.3137 49.1543 42.3189 48.5511 43.5251 48.5511C43.7262 48.5511 43.9272 48.5511 44.2288 48.6517V46.3397H43.7262C42.922 46.2392 41.7158 46.4402 41.2132 47.5459ZM46.7418 42.1179C45.9376 42.1179 45.3345 42.721 45.3345 43.5251C45.3345 44.2288 45.9376 44.9324 46.7418 44.9324C47.5459 44.9324 48.149 44.3293 48.149 43.5251C48.149 42.721 47.5459 42.1179 46.7418 42.1179ZM45.6361 54.6828H47.948V46.2392H45.6361V54.6828ZM53.8787 46.0381C51.7678 46.0381 49.7574 47.747 49.7574 50.461C49.7574 53.2756 51.7678 54.9844 54.0797 54.9844C56.1906 54.9844 57.4974 53.7782 57.8995 52.2704L55.9896 51.6672C55.688 52.3709 55.1854 52.974 54.0797 52.974C52.974 52.974 51.9688 52.1698 51.9688 51.0641H58V50.3605C58 47.6465 56.4922 46.0381 53.8787 46.0381ZM52.0693 49.5563C52.1698 48.7522 52.773 47.948 53.9792 47.948C55.286 47.948 55.7886 48.7522 55.8891 49.5563H52.0693ZM64.5338 46.0381C63.6291 46.0381 62.6239 46.4402 62.1213 47.3449V46.3397H59.9099V54.7834H62.2218V49.9584C62.2218 48.9532 62.825 48.2496 63.8302 48.2496C64.9359 48.2496 65.338 48.9532 65.338 49.9584V54.8839H67.6499V49.5563C67.5494 47.5459 66.5442 46.0381 64.5338 46.0381ZM73.6811 52.8735C72.4749 52.8735 71.5702 52.0693 71.5702 50.461C71.5702 48.9532 72.5754 48.1491 73.6811 48.1491C74.7868 48.1491 75.2894 48.8527 75.591 49.5563L77.6014 48.8527C77.1993 47.4454 75.9931 46.0381 73.6811 46.0381C71.2686 46.0381 69.3587 47.948 69.3587 50.461C69.3587 53.0745 71.2686 54.8839 73.7816 54.8839C75.9931 54.8839 77.2998 53.4766 77.7019 52.0693L75.6915 51.3657C75.4905 52.0693 74.8874 52.8735 73.6811 52.8735ZM82.9289 46.0381C80.818 46.0381 78.8076 47.747 78.8076 50.461C78.8076 53.2756 80.818 54.9844 83.13 54.9844C85.2409 54.9844 86.5477 53.7782 86.9497 52.2704L85.0399 51.6672C84.7383 52.3709 84.2357 52.974 83.13 52.974C82.0243 52.974 81.0191 52.1698 81.0191 51.0641H87.0503V50.3605C87.0503 47.6465 85.5425 46.0381 82.9289 46.0381ZM81.1196 49.5563C81.2201 48.7522 81.8232 47.948 83.0295 47.948C84.3362 47.948 84.8388 48.7522 84.9393 49.5563H81.1196ZM93.6846 45.3345V46.3397H92.2773V48.2496H93.6846V54.6828H95.9965V48.2496H97.9064V46.3397H95.9965V45.435C95.9965 44.5303 96.7002 44.2288 97.2028 44.2288C97.6049 44.2288 97.8059 44.3293 97.9064 44.3293V42.4194C97.7054 42.3189 97.3033 42.2184 96.8007 42.2184C94.8908 42.2184 93.6846 43.4246 93.6846 45.3345ZM101.626 47.5459V46.3397H99.4142V54.7834H101.726V50.9636C101.726 49.1543 102.731 48.5511 103.938 48.5511C104.139 48.5511 104.34 48.5511 104.641 48.6517V46.3397H104.139C103.234 46.2392 102.128 46.4402 101.626 47.5459ZM109.768 46.0381C107.255 46.0381 105.345 47.948 105.345 50.461C105.345 53.0745 107.255 54.8839 109.768 54.8839C112.281 54.8839 114.191 52.974 114.191 50.461C114.191 47.8475 112.281 46.0381 109.768 46.0381ZM109.768 52.8735C108.662 52.8735 107.657 52.0693 107.657 50.461C107.657 48.8527 108.662 48.0485 109.768 48.0485C110.873 48.0485 111.879 48.8527 111.879 50.461C111.979 52.0693 110.873 52.8735 109.768 52.8735ZM125.851 46.0381C124.745 46.0381 123.841 46.4402 123.137 47.4454C122.735 46.5407 121.83 46.0381 120.624 46.0381C119.719 46.0381 118.614 46.4402 118.211 47.3449V46.3397H116V54.7834H118.312V49.8579C118.312 48.9532 118.915 48.2496 119.92 48.2496C120.925 48.2496 121.428 48.9532 121.428 49.8579V54.8839H123.64V49.9584C123.64 49.0537 124.243 48.3501 125.147 48.3501C126.153 48.3501 126.655 49.0537 126.655 49.9584V54.9844H128.867V49.5563C128.867 46.9428 127.359 46.0381 125.851 46.0381ZM141.13 47.2444C140.929 46.7418 140.125 46.0381 138.717 46.0381C136.305 46.0381 134.697 47.948 134.697 50.461C134.697 52.974 136.406 54.8839 138.818 54.8839C139.924 54.8839 140.728 54.4818 141.13 53.8787V58H143.341V46.2392H141.13V47.2444ZM139.019 52.8735C137.813 52.8735 136.908 51.9688 136.908 50.461C136.908 48.9532 137.813 48.1491 139.019 48.1491C140.225 48.1491 141.13 48.9532 141.13 50.461C141.13 51.9688 140.125 52.8735 139.019 52.8735ZM153.192 46.2392H150.88V51.1647C150.88 52.1698 150.277 52.773 149.272 52.773C148.166 52.773 147.764 52.0693 147.764 51.0641V46.2392H145.452V51.5667C145.452 53.3761 146.659 54.8839 148.669 54.8839C149.574 54.8839 150.579 54.5823 150.981 53.7782C150.981 54.0797 150.981 54.4818 151.081 54.6828H153.293C153.293 54.3813 153.192 53.7782 153.192 53.175V46.2392ZM159.425 46.0381C156.912 46.0381 155.002 47.948 155.002 50.461C155.002 53.0745 156.912 54.8839 159.425 54.8839C161.938 54.8839 163.847 52.974 163.847 50.461C163.847 47.8475 161.938 46.0381 159.425 46.0381ZM159.425 52.8735C158.319 52.8735 157.314 52.0693 157.314 50.461C157.314 48.8527 158.319 48.0485 159.425 48.0485C160.53 48.0485 161.536 48.8527 161.536 50.461C161.536 52.0693 160.53 52.8735 159.425 52.8735ZM168.471 43.7262H166.461V44.9324C166.461 45.6361 166.059 46.2392 165.154 46.2392H164.752V48.2496H166.26V52.1698C166.26 53.7782 167.265 54.7834 168.974 54.7834C169.678 54.7834 170.08 54.6828 170.281 54.5823V52.6724C170.18 52.6724 169.879 52.773 169.577 52.773C168.974 52.773 168.572 52.5719 168.572 51.7678V48.2496H170.281V46.2392H168.572V43.7262H168.471ZM175.608 46.0381C173.497 46.0381 171.487 47.747 171.487 50.461C171.487 53.2756 173.497 54.9844 175.809 54.9844C177.92 54.9844 179.227 53.7782 179.629 52.2704L177.719 51.6672C177.418 52.3709 176.915 52.974 175.809 52.974C174.704 52.974 173.698 52.1698 173.698 51.0641H179.73V50.3605C179.73 47.6465 178.121 46.0381 175.608 46.0381ZM173.698 49.5563C173.799 48.7522 174.402 47.948 175.608 47.948C176.915 47.948 177.418 48.7522 177.518 49.5563H173.698ZM188.274 43.7262H186.263V44.9324C186.263 45.6361 185.861 46.2392 184.957 46.2392H184.555V48.2496H186.062V52.1698C186.062 53.7782 187.068 54.7834 188.776 54.7834C189.48 54.7834 189.882 54.6828 190.083 54.5823V52.6724C189.983 52.6724 189.681 52.773 189.38 52.773C188.776 52.773 188.374 52.5719 188.374 51.7678V48.2496H190.083V46.2392H188.374V43.7262H188.274ZM195.612 46.0381C193.099 46.0381 191.189 47.948 191.189 50.461C191.189 53.0745 193.099 54.8839 195.612 54.8839C198.125 54.8839 200.035 52.974 200.035 50.461C199.934 47.8475 198.125 46.0381 195.612 46.0381ZM195.612 52.8735C194.506 52.8735 193.501 52.0693 193.501 50.461C193.501 48.8527 194.506 48.0485 195.612 48.0485C196.718 48.0485 197.723 48.8527 197.723 50.461C197.723 52.0693 196.718 52.8735 195.612 52.8735ZM209.785 52.8735C208.579 52.8735 207.674 52.0693 207.674 50.461C207.674 48.9532 208.679 48.1491 209.785 48.1491C210.891 48.1491 211.393 48.8527 211.695 49.5563L213.705 48.8527C213.303 47.4454 212.097 46.0381 209.785 46.0381C207.373 46.0381 205.463 47.948 205.463 50.461C205.463 53.0745 207.373 54.8839 209.886 54.8839C212.097 54.8839 213.404 53.4766 213.806 52.0693L211.795 51.3657C211.494 52.0693 210.891 52.8735 209.785 52.8735ZM215.314 54.6828H217.626V42.3189H215.314V54.6828ZM226.873 49.2548C226.873 47.5459 225.868 46.0381 223.255 46.0381C221.043 46.0381 219.737 47.4454 219.636 48.8527L221.646 49.2548C221.747 48.5511 222.25 47.8475 223.255 47.8475C224.26 47.8475 224.662 48.3501 224.662 48.9532C224.662 49.2548 224.461 49.4558 224.059 49.5563L221.948 49.8579C220.541 50.0589 219.435 50.8631 219.435 52.3709C219.435 53.6776 220.541 54.8839 222.35 54.8839C223.556 54.8839 224.36 54.2808 224.863 53.6776C224.863 53.9792 224.863 54.4818 224.964 54.6828H227.075C226.974 54.3813 226.974 53.7782 226.974 53.3761L226.873 49.2548ZM224.662 51.2652C224.662 52.773 223.757 53.175 222.853 53.175C222.149 53.175 221.747 52.6724 221.747 52.1698C221.747 51.5667 222.25 51.1646 222.752 51.0641L224.662 50.7626V51.2652ZM229.185 54.6828H231.497V46.2392H229.185V54.6828ZM230.291 42.1179C229.487 42.1179 228.884 42.721 228.884 43.5251C228.884 44.2288 229.487 44.9324 230.291 44.9324C231.095 44.9324 231.698 44.3293 231.698 43.5251C231.698 42.721 231.095 42.1179 230.291 42.1179ZM243.56 46.0381C242.454 46.0381 241.549 46.4402 240.846 47.4454C240.444 46.5407 239.539 46.0381 238.333 46.0381C237.428 46.0381 236.322 46.4402 235.92 47.3449V46.3397H233.709V54.7834H236.021V49.8579C236.021 48.9532 236.624 48.2496 237.629 48.2496C238.634 48.2496 239.137 48.9532 239.137 49.8579V54.8839H241.348V49.9584C241.348 49.0537 241.951 48.3501 242.856 48.3501C243.861 48.3501 244.364 49.0537 244.364 49.9584V54.9844H246.575V49.5563C246.575 46.9428 245.068 46.0381 243.56 46.0381ZM249.993 51.6672C249.189 51.6672 248.485 52.3709 248.485 53.175C248.485 53.9792 249.189 54.6828 249.993 54.6828C250.898 54.6828 251.601 53.9792 251.601 53.175C251.601 52.3709 250.898 51.6672 249.993 51.6672Z" fill="white"/>
<path d="M7.03637 6.23224C8.04157 5.93068 8.84573 4.92548 8.84573 3.61872C8.84573 1.70884 7.53897 0.40208 5.12649 0.40208H0.703613V12.565H5.42805C7.74001 12.565 9.14729 11.1577 9.14729 9.14731C9.14729 7.63952 8.14209 6.5338 7.03637 6.23224ZM3.11609 2.41248H4.72441C5.83013 2.41248 6.43325 3.0156 6.43325 3.92028C6.43325 4.82496 5.83013 5.42808 4.72441 5.42808H3.11609V2.41248ZM5.02597 10.6551H3.11609V7.43848H5.02597C6.23221 7.43848 6.83533 8.04159 6.83533 9.04679C6.83533 10.052 6.13169 10.6551 5.02597 10.6551ZM13.3691 8.74523C13.3691 6.93587 14.3743 6.33276 15.5806 6.33276C15.7816 6.33276 15.9826 6.33276 16.2842 6.43328V4.12132H15.7816C15.078 4.12132 13.8717 4.32236 13.3691 5.42808V4.12132H11.0572V12.565H13.3691V8.74523ZM21.5112 4.0208C18.9982 4.0208 17.0884 5.93068 17.0884 8.44367C17.0884 10.9567 18.9982 12.8666 21.5112 12.8666C24.0242 12.8666 25.9341 10.9567 25.9341 8.44367C25.9341 5.83016 24.0242 4.0208 21.5112 4.0208ZM21.5112 10.7556C20.4055 10.7556 19.4003 9.95147 19.4003 8.34315C19.4003 6.73484 20.4055 5.93068 21.5112 5.93068C22.617 5.93068 23.6222 6.73484 23.6222 8.34315C23.6222 9.95147 22.617 10.7556 21.5112 10.7556ZM30.0554 10.3536L30.9601 9.34835L33.1715 12.565H35.9861L32.5684 7.74003L35.8856 4.22184H32.87L29.9549 7.33795V0.20104H27.643V12.565H29.9549V10.3536H30.0554ZM44.5303 8.24263C44.5303 5.5286 43.0225 3.92028 40.409 3.92028C38.2981 3.92028 36.2877 5.62912 36.2877 8.34315C36.2877 11.1577 38.2981 12.8666 40.61 12.8666C42.7209 12.8666 44.0277 11.6603 44.4298 10.1525L42.5199 9.54939C42.2183 10.253 41.7157 10.8562 40.61 10.8562C39.5043 10.8562 38.4991 10.052 38.4991 8.94627H44.5303V8.24263ZM38.7001 7.33795C38.5996 6.63432 39.3033 5.72964 40.5095 5.72964C41.8163 5.72964 42.3189 6.5338 42.4194 7.33795H38.7001ZM48.6516 8.74523C48.6516 6.93587 49.6568 6.33276 50.8631 6.33276C51.0641 6.33276 51.2651 6.33276 51.5667 6.43328V4.12132H51.0641C50.3605 4.12132 49.1542 4.32236 48.6516 5.42808V4.12132H46.4402V12.565H48.7521L48.6516 8.74523ZM55.9896 11.0572C54.9844 11.0572 54.4818 10.4541 54.4818 9.75043L52.5719 10.1525C52.6724 11.1577 53.5771 12.766 56.0901 12.766C58.3015 12.766 59.3067 11.3588 59.3067 9.95147C59.3067 8.74523 58.5026 7.74004 56.7937 7.33795L55.5875 7.0364C55.0849 6.93588 54.7833 6.73484 54.7833 6.33276C54.7833 5.83016 55.2859 5.5286 55.889 5.5286C56.8942 5.5286 57.1958 6.13172 57.2963 6.63432L59.2062 6.23224C59.1057 5.32756 58.3015 3.81976 55.889 3.81976C54.0797 3.81976 52.7729 5.026 52.7729 6.5338C52.7729 7.74003 53.4766 8.64471 55.0849 9.04679L56.1906 9.34835C56.7937 9.44887 57.0953 9.75043 57.0953 10.1525C57.0953 10.6551 56.6932 11.0572 55.9896 11.0572ZM62.1213 12.6655C62.3223 12.6655 62.5234 12.565 62.5234 12.565C62.5234 13.4697 61.7192 14.2738 60.915 14.3744V15.4801C62.2218 15.279 63.9306 14.2738 63.9306 11.7608C63.9306 10.6551 63.3275 9.75043 62.2218 9.75043C61.3171 9.75043 60.714 10.3536 60.714 11.1577C60.714 12.0624 61.3171 12.6655 62.1213 12.6655ZM75.792 4.12132V5.12652C75.4904 4.62392 74.6863 4.0208 73.3795 4.0208C71.0676 4.0208 69.4592 5.93068 69.4592 8.14211C69.4592 10.4541 71.1681 12.2634 73.3795 12.2634C74.5858 12.2634 75.3899 11.7608 75.6915 11.1577V11.7608C75.6915 13.3692 74.8873 14.0728 73.48 14.0728C72.3743 14.0728 71.6707 13.3692 71.4696 12.4645L69.4592 12.9671C69.6603 14.5754 71.2686 15.9827 73.5806 15.9827C76.6967 15.9827 78.0034 13.8718 78.0034 11.5598V4.12132H75.792ZM73.7816 10.253C72.5754 10.253 71.7712 9.44887 71.7712 8.14211C71.7712 6.83536 72.6759 6.0312 73.7816 6.0312C74.8873 6.0312 75.792 6.83536 75.792 8.14211C75.792 9.44887 74.9878 10.253 73.7816 10.253ZM82.5268 8.74523C82.5268 6.93587 83.532 6.33276 84.7383 6.33276C84.9393 6.33276 85.1404 6.33276 85.4419 6.43328V4.12132H84.9393C84.2357 4.12132 83.0294 4.32236 82.5268 5.42808V4.12132H80.3154V12.565H82.6273L82.5268 8.74523ZM90.7695 4.0208C88.2565 4.0208 86.3466 5.93068 86.3466 8.44367C86.3466 10.9567 88.2565 12.8666 90.7695 12.8666C93.2825 12.8666 95.1923 10.9567 95.1923 8.44367C95.1923 5.83016 93.2825 4.0208 90.7695 4.0208ZM90.7695 10.7556C89.6637 10.7556 88.6585 9.95147 88.6585 8.34315C88.558 6.73484 89.5632 5.93068 90.7695 5.93068C91.8752 5.93068 92.8804 6.73484 92.8804 8.34315C92.8804 9.95147 91.8752 10.7556 90.7695 10.7556ZM100.922 12.565L102.832 6.83536L104.842 12.565H107.154L109.768 4.12132H107.556L106.048 9.54939L104.239 4.12132H101.827L100.017 9.54939L98.5095 4.12132H96.097L98.8111 12.565H100.922ZM115.397 15.8821H117.809L123.137 4.12132H120.624L118.613 9.04679L116.402 4.12132H113.889L117.508 11.4593L115.397 15.8821ZM127.962 4.0208C125.449 4.0208 123.539 5.93068 123.539 8.44367C123.539 10.9567 125.449 12.8666 127.962 12.8666C130.475 12.8666 132.385 10.9567 132.385 8.44367C132.385 5.83016 130.475 4.0208 127.962 4.0208ZM127.962 10.7556C126.856 10.7556 125.851 9.95147 125.851 8.34315C125.851 6.73484 126.856 5.93068 127.962 5.93068C129.068 5.93068 130.073 6.73484 130.073 8.34315C130.073 9.95147 129.068 10.7556 127.962 10.7556ZM137.31 12.766C138.215 12.766 139.22 12.4645 139.622 11.6603C139.622 11.9619 139.622 12.364 139.723 12.565H141.934C141.934 12.2634 141.834 11.6603 141.834 11.0572V4.12132H139.522V9.04679C139.522 10.052 138.919 10.6551 137.913 10.6551C136.808 10.6551 136.406 9.95147 136.406 8.94627V4.12132H134.094V9.44887C134.094 11.3588 135.3 12.766 137.31 12.766ZM146.357 8.74523C146.357 6.93587 147.362 6.33276 148.568 6.33276C148.769 6.33276 148.971 6.33276 149.272 6.43328V4.12132H148.769C148.066 4.12132 146.86 4.32236 146.357 5.42808V4.12132H144.146V12.565H146.457V8.74523H146.357ZM159.123 3.92028C157.917 3.92028 156.912 4.42288 156.61 5.026V0.20104H154.399V12.565H156.61V11.5598C157.012 12.2634 157.917 12.766 159.123 12.766C161.535 12.766 163.043 10.8562 163.043 8.34315C163.043 5.83016 161.636 3.92028 159.123 3.92028ZM158.721 10.7556C157.615 10.7556 156.61 9.85095 156.61 8.34315C156.61 6.83536 157.615 5.93068 158.721 5.93068C159.927 5.93068 160.832 6.73484 160.832 8.34315C160.832 9.85095 159.927 10.7556 158.721 10.7556ZM168.069 12.766C168.974 12.766 169.979 12.4645 170.381 11.6603C170.381 11.9619 170.381 12.364 170.482 12.565H172.693C172.693 12.2634 172.593 11.6603 172.593 11.0572V4.12132H170.281V9.04679C170.281 10.052 169.678 10.6551 168.672 10.6551C167.567 10.6551 167.165 9.95147 167.165 8.94627V4.12132H164.853V9.44887C164.853 11.3588 166.059 12.766 168.069 12.766ZM177.719 11.0572C176.714 11.0572 176.211 10.4541 176.211 9.75043L174.302 10.1525C174.402 11.1577 175.307 12.766 177.82 12.766C180.031 12.766 181.036 11.3588 181.036 9.95147C181.036 8.74523 180.232 7.74004 178.523 7.33795L177.317 7.0364C176.815 6.93588 176.513 6.73484 176.513 6.33276C176.513 5.83016 177.016 5.5286 177.619 5.5286C178.624 5.5286 178.925 6.13172 179.026 6.63432L180.936 6.23224C180.835 5.32756 180.031 3.81976 177.619 3.81976C175.809 3.81976 174.503 5.026 174.503 6.5338C174.503 7.74003 175.206 8.64471 176.815 9.04679L177.92 9.34835C178.523 9.44887 178.825 9.75043 178.825 10.1525C178.925 10.6551 178.523 11.0572 177.719 11.0572ZM184.052 2.81456C184.856 2.81456 185.459 2.21144 185.459 1.40728C185.459 0.60312 184.856 0 184.052 0C183.248 0 182.645 0.60312 182.645 1.40728C182.645 2.21144 183.248 2.81456 184.052 2.81456ZM182.846 12.565H185.158V4.12132H182.846V12.565ZM189.782 7.74003C189.782 6.73484 190.385 6.0312 191.39 6.0312C192.496 6.0312 192.898 6.73484 192.898 7.74003V12.6655H195.21V7.23743C195.21 5.42808 194.204 3.92028 192.194 3.92028C191.289 3.92028 190.284 4.32236 189.782 5.22704V4.22184H187.57V12.6655H189.882V7.74003H189.782ZM205.161 8.24263C205.161 5.5286 203.653 3.92028 201.04 3.92028C198.929 3.92028 196.918 5.62912 196.918 8.34315C196.918 11.1577 198.929 12.8666 201.241 12.8666C203.352 12.8666 204.659 11.6603 205.061 10.1525L203.151 9.54939C202.849 10.253 202.347 10.8562 201.241 10.8562C200.135 10.8562 199.13 10.052 199.13 8.94627H205.161V8.24263ZM199.23 7.33795C199.23 6.63432 199.934 5.72964 201.04 5.72964C202.347 5.72964 202.849 6.5338 202.95 7.33795H199.23ZM209.986 11.0572C208.981 11.0572 208.478 10.4541 208.478 9.75043L206.568 10.1525C206.669 11.1577 207.574 12.766 210.087 12.766C212.298 12.766 213.303 11.3588 213.303 9.95147C213.303 8.74523 212.499 7.74004 210.79 7.33795L209.584 7.0364C209.081 6.93588 208.78 6.73484 208.78 6.33276C208.78 5.83016 209.282 5.5286 209.886 5.5286C210.891 5.5286 211.192 6.13172 211.293 6.63432L213.203 6.23224C213.102 5.32756 212.298 3.81976 209.886 3.81976C208.076 3.81976 206.769 5.026 206.769 6.5338C206.769 7.74003 207.473 8.64471 209.081 9.04679L210.187 9.34835C210.79 9.44887 211.092 9.75043 211.092 10.1525C211.092 10.6551 210.69 11.0572 209.986 11.0572ZM218.028 11.0572C217.022 11.0572 216.52 10.4541 216.52 9.75043L214.61 10.1525C214.711 11.1577 215.615 12.766 218.128 12.766C220.34 12.766 221.345 11.3588 221.345 9.95147C221.345 8.74523 220.541 7.74004 218.832 7.33795L217.626 7.0364C217.123 6.93588 216.821 6.73484 216.821 6.33276C216.821 5.83016 217.324 5.5286 217.927 5.5286C218.932 5.5286 219.234 6.13172 219.334 6.63432L221.244 6.23224C221.144 5.32756 220.34 3.81976 217.927 3.81976C216.118 3.81976 214.811 5.026 214.811 6.5338C214.811 7.74003 215.515 8.64471 217.123 9.04679L218.229 9.34835C218.832 9.44887 219.133 9.75043 219.133 10.1525C219.133 10.6551 218.731 11.0572 218.028 11.0572ZM224.26 12.6655C225.165 12.6655 225.868 11.9619 225.868 11.1577C225.868 10.3536 225.165 9.64991 224.26 9.64991C223.456 9.64991 222.752 10.3536 222.752 11.1577C222.752 11.9619 223.456 12.6655 224.26 12.6655Z" fill="white"/>
<path d="M5.12649 21.5113H0.703613V33.6742H5.02597C8.54417 33.5737 11.0572 31.3622 11.0572 27.5425C11.0572 23.7227 8.54417 21.5113 5.12649 21.5113ZM5.02597 31.3622H3.11609V23.6222H5.02597C7.03637 23.6222 8.64469 24.8284 8.64469 27.5425C8.64469 30.156 7.03637 31.3622 5.02597 31.3622ZM12.967 33.5737H15.279V25.13H12.967V33.5737ZM14.0728 21.0087C13.2686 21.0087 12.6655 21.6118 12.6655 22.4159C12.6655 23.1196 13.2686 23.8232 14.0728 23.8232C14.8769 23.8232 15.48 23.2201 15.48 22.4159C15.48 21.6118 14.8769 21.0087 14.0728 21.0087ZM23.7227 31.0607C23.7227 29.8544 22.9185 28.8492 21.2097 28.4471L20.104 28.2461C19.6014 28.1456 19.2998 27.9445 19.2998 27.5425C19.2998 27.0399 19.8024 26.7383 20.4055 26.7383C21.4107 26.7383 21.7123 27.3414 21.8128 27.844L23.7227 27.4419C23.6222 26.5373 22.818 25.0295 20.4055 25.0295C18.5962 25.0295 17.2894 26.2357 17.2894 27.7435C17.2894 28.9497 17.993 29.8544 19.6014 30.2565L20.7071 30.5581C21.3102 30.6586 21.6118 30.9601 21.6118 31.3622C21.6118 31.7643 21.2097 32.1664 20.506 32.1664C19.5008 32.1664 18.9982 31.5633 18.9982 30.8596L17.0884 31.2617C17.1889 32.2669 18.0936 33.8752 20.6066 33.8752C22.7175 33.8752 23.7227 32.4679 23.7227 31.0607ZM29.5528 33.8752C31.7643 33.8752 33.071 32.4679 33.4731 31.0607L31.4627 30.357C31.2617 30.9601 30.6585 31.7643 29.5528 31.7643C28.3466 31.7643 27.4419 30.9601 27.4419 29.3518C27.4419 27.844 28.4471 27.0399 29.5528 27.0399C30.6585 27.0399 31.1611 27.7435 31.4627 28.4471L33.4731 27.7435C33.071 26.3362 31.8648 24.9289 29.5528 24.9289C27.1404 24.9289 25.2305 26.8388 25.2305 29.3518C25.13 31.9653 27.0398 33.8752 29.5528 33.8752ZM39.0017 24.9289C36.4887 24.9289 34.5788 26.8388 34.5788 29.3518C34.5788 31.9653 36.4887 33.7747 39.0017 33.7747C41.5147 33.8752 43.4246 31.9653 43.4246 29.3518C43.4246 26.7383 41.5147 24.9289 39.0017 24.9289ZM39.0017 31.7643C37.896 31.7643 36.8908 30.9601 36.8908 29.3518C36.8908 27.7435 37.896 26.9393 39.0017 26.9393C40.1074 26.9393 41.1126 27.7435 41.1126 29.3518C41.1126 30.9601 40.1074 31.7643 39.0017 31.7643ZM50.5615 25.13L48.5511 30.7591L46.4402 25.13H43.9272L47.3449 33.5737H49.6568L52.8734 25.13H50.5615ZM61.8197 29.2513C61.8197 26.5373 60.3119 24.9289 57.6984 24.9289C55.5875 24.9289 53.5771 26.6378 53.5771 29.3518C53.5771 32.1664 55.5875 33.8752 57.8994 33.8752C60.0104 33.8752 61.3171 32.669 61.7192 31.1612L59.8093 30.5581C59.5078 31.2617 59.0052 31.8648 57.8994 31.8648C56.7937 31.8648 55.7885 31.0607 55.7885 29.9549H61.8197V29.2513ZM55.889 28.4471C55.9896 27.643 56.5927 26.8388 57.7989 26.8388C59.1057 26.8388 59.6083 27.643 59.7088 28.4471H55.889ZM65.941 26.4367V25.2305H63.7296V33.6742H66.0416V29.8544C66.0416 28.0451 67.0468 27.4419 68.253 27.4419C68.454 27.4419 68.6551 27.4419 68.9566 27.5425V25.2305H68.454C67.5494 25.13 66.4436 25.331 65.941 26.4367ZM81.019 32.2669V28.1456C81.019 26.4367 80.0138 24.9289 77.4003 24.9289C75.1889 24.9289 73.8821 26.3362 73.7816 27.7435L75.792 28.1456C75.8925 27.4419 76.3951 26.7383 77.4003 26.7383C78.4055 26.7383 78.8076 27.2409 78.8076 27.844C78.8076 28.1456 78.6066 28.3466 78.2045 28.4471L76.0936 28.7487C74.6863 28.9497 73.5806 29.7539 73.5806 31.2617C73.5806 32.5685 74.6863 33.7747 76.4956 33.7747C77.7019 33.7747 78.506 33.1716 79.0086 32.5685C78.9081 32.87 78.9081 33.3726 79.0086 33.5737H81.1196C81.019 33.2721 81.019 32.669 81.019 32.2669ZM78.7071 30.156C78.7071 31.6638 77.8024 32.0659 76.8977 32.0659C76.1941 32.0659 75.792 31.5633 75.792 31.0607C75.792 30.4575 76.2946 30.0555 76.7972 29.9549L78.7071 29.6534V30.156ZM94.9913 33.5737H97.3033L99.9168 25.13H97.7053L96.1975 30.5581L94.3882 25.13H91.9757L90.1663 30.5581L88.4575 25.13H86.045L88.7591 33.5737H91.071L92.9809 27.844L94.9913 33.5737ZM106.752 28.6482V33.5737H109.064V28.2461C109.064 26.4367 108.059 24.9289 105.948 24.9289C105.144 24.9289 104.239 25.2305 103.636 25.8336V21.2097H101.324V33.5737H103.636V28.6482C103.737 27.7435 104.239 27.0399 105.244 27.0399C106.25 27.0399 106.752 27.7435 106.752 28.6482ZM115.095 24.9289C112.582 24.9289 110.672 26.8388 110.672 29.3518C110.672 31.9653 112.582 33.7747 115.095 33.7747C117.608 33.8752 119.518 31.9653 119.518 29.3518C119.518 26.7383 117.608 24.9289 115.095 24.9289ZM115.095 31.7643C113.99 31.7643 112.984 30.9601 112.984 29.3518C112.984 27.7435 113.99 26.9393 115.095 26.9393C116.201 26.9393 117.206 27.7435 117.206 29.3518C117.307 30.9601 116.201 31.7643 115.095 31.7643ZM121.328 33.5737H123.639V21.2097H121.328V33.5737ZM133.691 29.2513C133.792 26.5373 132.184 24.9289 129.57 24.9289C127.459 24.9289 125.449 26.6378 125.449 29.3518C125.449 32.1664 127.459 33.8752 129.771 33.8752C131.882 33.8752 133.189 32.669 133.591 31.1612L131.681 30.5581C131.38 31.2617 130.877 31.8648 129.771 31.8648C128.665 31.8648 127.66 31.0607 127.66 29.9549H133.691V29.2513ZM127.761 28.4471C127.861 27.643 128.464 26.8388 129.671 26.8388C130.977 26.8388 131.48 27.643 131.581 28.4471H127.761ZM147.262 33.5737V28.2461C147.262 26.4367 146.256 24.9289 144.246 24.9289C143.341 24.9289 142.336 25.331 141.834 26.2357V25.2305H139.622V33.6742H141.934V28.8492C141.934 27.844 142.537 27.1404 143.542 27.1404C144.648 27.1404 145.05 27.844 145.05 28.8492V33.7747H147.262V33.5737ZM157.314 29.2513C157.314 26.5373 155.806 24.9289 153.192 24.9289C151.081 24.9289 149.071 26.6378 149.071 29.3518C149.071 32.1664 151.081 33.8752 153.393 33.8752C155.404 33.8752 156.811 32.669 157.213 31.1612L155.303 30.5581C155.002 31.2617 154.499 31.8648 153.393 31.8648C152.288 31.8648 151.282 31.0607 151.282 29.9549H157.314V29.2513ZM151.383 28.3466C151.383 27.643 151.986 26.7383 153.192 26.7383C154.499 26.7383 155.002 27.5425 155.102 28.3466H151.383ZM160.53 25.13H158.118L160.832 33.5737H163.144L165.054 27.844L167.064 33.5737H169.376L171.99 25.13H169.778L168.27 30.5581L166.461 25.13H164.048L162.239 30.5581L160.53 25.13ZM185.56 32.0659V21.2097H183.348V26.0347C183.147 25.6326 182.444 25.0295 180.936 25.0295C178.523 25.0295 176.915 26.9393 176.915 29.4523C176.915 31.9653 178.624 33.8752 181.036 33.8752C182.142 33.8752 183.047 33.3726 183.348 32.669C183.348 33.0711 183.449 33.4731 183.449 33.6742H185.66C185.66 33.2721 185.56 32.669 185.56 32.0659ZM181.338 31.7643C180.132 31.7643 179.227 30.8596 179.227 29.3518C179.227 27.844 180.132 27.0399 181.338 27.0399C182.544 27.0399 183.449 27.844 183.449 29.3518C183.348 30.8596 182.444 31.7643 181.338 31.7643ZM189.078 21.0087C188.274 21.0087 187.671 21.6118 187.671 22.4159C187.671 23.1196 188.274 23.8232 189.078 23.8232C189.882 23.8232 190.485 23.2201 190.485 22.4159C190.485 21.6118 189.882 21.0087 189.078 21.0087ZM187.872 33.5737H190.184V25.13H187.872V33.5737ZM198.326 25.0295V26.1352C198.024 25.5321 197.22 25.0295 195.913 25.0295C193.601 25.0295 191.993 26.9393 191.993 29.1508C191.993 31.4627 193.702 33.2721 195.913 33.2721C197.12 33.2721 197.924 32.7695 198.225 32.1664V32.7695C198.225 34.3778 197.421 35.0815 196.014 35.0815C194.908 35.0815 194.204 34.3778 194.003 33.4731L191.993 33.9757C192.194 35.5841 193.802 36.9913 196.114 36.9913C199.23 36.9913 200.537 34.8804 200.537 32.5685V25.0295H198.326ZM196.315 31.2617C195.109 31.2617 194.305 30.4575 194.305 29.1508C194.305 27.844 195.21 27.0399 196.315 27.0399C197.421 27.0399 198.326 27.844 198.326 29.1508C198.326 30.4575 197.522 31.2617 196.315 31.2617ZM202.849 33.5737H205.161V25.13H202.849V33.5737ZM203.955 23.8232C204.759 23.8232 205.362 23.2201 205.362 22.4159C205.362 21.6118 204.759 21.0087 203.955 21.0087C203.151 21.0087 202.548 21.6118 202.548 22.4159C202.548 23.2201 203.151 23.8232 203.955 23.8232ZM212.097 27.2409V25.2305H210.388V22.7175H208.378V23.9237C208.378 24.6274 207.976 25.2305 207.071 25.2305H206.669V27.2409H208.177V31.0607C208.177 32.669 209.182 33.6742 210.891 33.6742C211.594 33.6742 211.996 33.5737 212.198 33.4731V31.5633C212.097 31.5633 211.795 31.6638 211.494 31.6638C210.891 31.6638 210.489 31.4627 210.489 30.6586V27.1404H212.097V27.2409ZM220.842 32.2669V28.1456C220.842 26.4367 219.837 24.9289 217.224 24.9289C215.012 24.9289 213.705 26.3362 213.605 27.7435L215.615 28.1456C215.716 27.4419 216.218 26.7383 217.224 26.7383C218.229 26.7383 218.631 27.2409 218.631 27.844C218.631 28.1456 218.43 28.3466 218.028 28.4471L215.917 28.7487C214.509 28.9497 213.404 29.7539 213.404 31.2617C213.404 32.5685 214.509 33.7747 216.319 33.7747C217.525 33.7747 218.329 33.1716 218.832 32.5685C218.832 32.87 218.832 33.3726 218.932 33.5737H221.043C220.943 33.2721 220.842 32.669 220.842 32.2669ZM216.821 32.0659C216.118 32.0659 215.716 31.5633 215.716 31.0607C215.716 30.4575 216.218 30.0555 216.721 29.9549L218.631 29.6534V30.156C218.631 31.6638 217.726 32.0659 216.821 32.0659ZM223.054 33.5737H225.366V21.2097H223.054V33.5737Z" fill="white"/>
</svg>
