<svg width="112" height="45" viewBox="0 0 112 45" fill="none" xmlns="http://www.w3.org/2000/svg">
<rect x="1" y="1" width="110" height="43" stroke="white" stroke-width="2"/>
<path d="M14.1 17.2H12V27.2H18.2V25.4H14.1V17.2ZM19.9 27.1H25.7V25.4H22V22.8H25.4V21.1H22V18.9H25.6V17.2H19.9V27.1ZM30 17.1L26.5 27.1H28.8L29.5 24.7H33.1L33.8 27.1H36.1L32.6 17.1H30ZM30 23L30.7 20.7C30.7 20.6 30.8 20.4 30.9 20.2C31 20 31 19.7 31.1 19.4C31.2 19.1 31.2 18.9 31.3 18.7C31.3 18.9 31.4 19.1 31.5 19.4C31.6 19.7 31.6 19.9 31.7 20.1C31.8 20.3 31.8 20.5 31.9 20.7L32.6 23H30ZM43.4 22.2C43.7 22 43.9 21.7 44.1 21.3C44.3 21 44.4 20.6 44.4 20.1C44.4 19.1 44.1 18.3 43.4 17.8C42.8 17.3 41.7 17.1 40.4 17.1H37.5V27.1H39.6V23.3H40.7L43.1 27.1H45.5L42.6 22.7C42.8 22.6 43.1 22.5 43.4 22.2ZM41.7 21.2C41.4 21.4 40.9 21.5 40.2 21.5H39.5V18.9H40.1C40.8 18.9 41.3 19 41.6 19.2C41.9 19.4 42.1 19.7 42.1 20.2C42.2 20.7 42 21 41.7 21.2ZM53.6 21.9V23.3C53.6 23.8 53.6 24.2 53.7 24.7L49.4 17.2H46.7V27.2H48.6V22.4C48.6 21.9 48.6 21.4 48.5 21C48.5 20.5 48.5 20 48.4 19.6H48.5L52.9 27.2H55.6V17.2H53.7V21.9H53.6ZM67 24.8L64.6 17.2H61.7V27.2H63.6V22.5V21.4C63.6 21 63.6 20.6 63.5 20.2V19.4H63.6L66 27.2H67.9L70.5 19.4H70.6V27.2H72.6V17.2H69.7L67 24.8ZM81.9 17.6C81.2 17.2 80.3 17 79.2 17C78.1 17 77.2 17.2 76.5 17.6C75.8 18 75.3 18.6 74.9 19.4C74.6 20.2 74.4 21.1 74.4 22.1C74.4 23.1 74.6 24 74.9 24.8C75.2 25.6 75.8 26.2 76.5 26.6C77.2 27 78.1 27.2 79.2 27.2C80.3 27.2 81.2 27 81.9 26.6C82.6 26.2 83.1 25.6 83.5 24.8C83.8 24 84 23.1 84 22.1C84 21.1 83.8 20.2 83.5 19.4C83.1 18.7 82.6 18.1 81.9 17.6ZM81.1 24.6C80.7 25.2 80.1 25.5 79.2 25.5C78.3 25.5 77.7 25.2 77.3 24.6C76.9 24 76.7 23.2 76.7 22.1C76.7 21.1 76.9 20.2 77.3 19.6C77.7 19 78.3 18.7 79.2 18.7C80.1 18.7 80.7 19 81.1 19.6C81.5 20.2 81.7 21 81.7 22.1C81.7 23.2 81.5 24 81.1 24.6ZM92 22.2C92.3 22 92.5 21.7 92.7 21.3C92.9 21 93 20.6 93 20.1C93 19.1 92.7 18.3 92 17.8C91.4 17.3 90.3 17.1 89 17.1H86V27.1H88.1V23.3H89.2L91.6 27.1H94L91.1 22.7C91.4 22.6 91.7 22.5 92 22.2ZM90.3 21.2C90 21.4 89.5 21.5 88.8 21.5H88.1V18.9H88.7C89.4 18.9 89.9 19 90.2 19.2C90.5 19.4 90.7 19.7 90.7 20.2C90.8 20.7 90.6 21 90.3 21.2ZM101 18.9V17.2H95.2V27.2H101V25.4H97.4V22.8H100.8V21.1H97.4V18.9H101Z" fill="white"/>
</svg>
