<svg width="101" height="19" viewBox="0 0 101 19" fill="none" xmlns="http://www.w3.org/2000/svg">
<path fill-rule="evenodd" clip-rule="evenodd" d="M10.8348 5.94824C13.1158 8.68546 14.3704 11.9929 14.3704 15.6426C14.3704 16.555 14.2563 17.3533 14.1423 18.2657H20.6432C21.2135 18.2657 21.6697 17.8095 21.6697 17.3533V0.93C21.6697 0.359746 20.9853 -0.0964572 20.4151 0.0175936C16.5374 0.93 13.2299 3.09697 10.8348 5.94824" fill="#FEFEFE" fill-opacity="0.5"/>
<path fill-rule="evenodd" clip-rule="evenodd" d="M7.52736 18.2657C7.4133 17.4674 7.29925 16.555 7.29925 15.6426C7.29925 11.9929 8.66786 8.57141 10.8348 5.94824C8.43976 3.09697 5.13229 0.93 1.25456 0.0175936C0.684305 -0.0964572 0 0.359746 0 0.93V17.3533C0 17.8095 0.456203 18.2657 1.02646 18.2657H7.52736V18.2657Z" fill="#FEFEFE" fill-opacity="0.6"/>
<path fill-rule="evenodd" clip-rule="evenodd" d="M10.8348 5.94824C8.55382 8.68546 7.18521 11.9929 7.18521 15.6426C7.18521 16.555 7.29926 17.3533 7.41331 18.2657H14.2564C14.3704 17.4674 14.4845 16.555 14.4845 15.6426C14.4845 11.9929 13.1159 8.68546 10.8348 5.94824" fill="#FEFEFE" fill-opacity="0.8"/>
<path fill-rule="evenodd" clip-rule="evenodd" d="M80.0146 5.60385C79.1022 5.60385 78.3039 4.91955 78.3039 4.00714C78.3039 3.09474 78.9882 2.41043 80.0146 2.41043C81.0411 2.41043 81.7254 3.09474 81.7254 4.00714C81.7254 4.91955 80.9271 5.60385 80.0146 5.60385ZM30.6306 15.8684H33.71L34.0522 7.31462L37.2456 12.3329H38.9563L41.9217 7.20057L42.3779 15.7544H45.6853L44.887 2.75258H41.8076L38.158 8.91133L34.3943 2.75258H31.3149L30.6306 15.8684V15.8684ZM55.6078 13.0172C55.3797 13.1312 55.0375 13.3593 54.4673 13.5874C54.0111 13.8155 53.3267 13.9296 52.5284 13.9296C51.73 13.9296 51.0457 13.7015 50.5895 13.3593C50.1333 13.0172 49.9052 12.561 49.9052 12.1048H57.0904V11.6485C57.0904 10.8502 56.9764 10.1659 56.7483 9.48158C56.5202 8.79728 56.178 8.22702 55.8359 7.77082C55.3797 7.31462 54.9235 6.97246 54.2392 6.63031C53.6689 6.40221 52.8705 6.28816 52.0722 6.28816C51.2738 6.28816 50.4755 6.40221 49.9052 6.74436C49.2209 6.97246 48.7647 7.31462 48.3085 7.77082C47.8523 8.22702 47.5102 8.68323 47.2821 9.36753C47.054 9.93779 46.9399 10.6221 46.9399 11.1923C46.9399 11.8767 47.054 12.561 47.2821 13.2453C47.5102 13.8155 47.8523 14.3858 48.4226 14.842C48.8788 15.2982 49.449 15.6403 50.1333 15.8684C50.8176 16.0965 51.616 16.2106 52.4143 16.2106C53.0986 16.2106 53.6689 16.2106 54.1251 16.0965C54.5813 15.9825 55.0375 15.8684 55.3797 15.7544C55.7218 15.6403 56.064 15.4122 56.2921 15.2982C56.5202 15.1841 56.7483 15.0701 56.8623 14.956L55.6078 13.0172V13.0172ZM49.9052 10.2799C49.9052 10.0518 49.9052 9.93779 50.0193 9.70968C50.1333 9.48158 50.2474 9.36753 50.4755 9.13943C50.7036 9.02538 50.9317 8.79728 51.1598 8.68323C51.3879 8.56918 51.73 8.56918 52.0722 8.56918C52.4143 8.56918 52.7565 8.56918 52.9846 8.68323C53.2127 8.79728 53.4408 8.91133 53.6689 9.13943C53.897 9.25348 54.0111 9.48158 54.0111 9.70968C54.1251 9.93779 54.1251 10.1659 54.1251 10.2799H49.9052V10.2799ZM67.5831 15.8684H77.0493V13.4734H70.8906V2.75258H67.5831V15.8684V15.8684ZM78.4179 15.8684H81.4973V6.63031H78.3039V15.8684H78.4179ZM92.104 3.32284C91.6478 2.98069 91.0776 2.75258 90.6214 2.52448C89.9371 2.52448 89.4809 2.41043 88.9106 2.41043C88.3404 2.41043 87.8842 2.52448 87.428 2.63853C86.9717 2.75258 86.5155 2.98069 86.0593 3.32284C85.7172 3.66499 85.375 4.00714 85.1469 4.46335C84.9188 4.91955 84.8048 5.4898 84.8048 6.17411V6.63031H83.094V8.79728H84.6907V15.7544H87.7701V8.91133H90.1652V6.63031H87.7701V6.17411C87.7701 5.7179 87.8842 5.37575 88.1123 5.14765C88.4544 4.8055 88.7966 4.69145 89.2528 4.69145C89.4809 4.69145 89.823 4.69145 90.0511 4.8055L90.7354 5.14765L92.104 3.32284V3.32284ZM65.188 13.3593L64.5037 13.7015C64.2756 13.8155 64.0475 13.8155 63.7054 13.8155C63.2492 13.8155 63.0211 13.7015 62.793 13.4734C62.6789 13.2453 62.5649 12.9031 62.5649 12.4469V8.91133H65.188V6.63031H62.5649V4.23524H59.4855V6.74436H57.8888V8.91133H59.4855V12.3329C59.4855 12.9031 59.5995 13.4734 59.7136 13.9296C59.8276 14.3858 60.0558 14.842 60.3979 15.1841C60.7401 15.5263 61.0822 15.7544 61.5384 15.9825C61.9946 16.2106 62.6789 16.2106 63.3632 16.2106C64.5037 16.2106 65.5302 15.8684 66.5566 15.1841L65.188 13.3593V13.3593ZM99.5173 13.0172C99.2892 13.1312 98.9471 13.3593 98.3768 13.5874C97.9206 13.8155 97.2363 13.9296 96.438 13.9296C95.6396 13.9296 94.9553 13.7015 94.4991 13.3593C94.0429 13.0172 93.8148 12.561 93.8148 12.1048H101V11.6485C101 10.8502 100.886 10.1659 100.658 9.48158C100.43 8.79728 100.088 8.22702 99.7454 7.77082C99.2892 7.31462 98.833 6.97246 98.1487 6.63031C97.5785 6.40221 96.7801 6.28816 95.9818 6.28816C95.1834 6.28816 94.3851 6.40221 93.8148 6.74436C93.1305 6.97246 92.6743 7.31462 92.2181 7.77082C91.7619 8.22702 91.4197 8.68323 91.1916 9.36753C90.9635 9.93779 90.8495 10.6221 90.8495 11.1923C90.8495 11.8767 90.9635 12.561 91.1916 13.2453C91.4197 13.8155 91.7619 14.3858 92.3321 14.842C92.7883 15.2982 93.3586 15.6403 94.0429 15.8684C94.7272 16.0965 95.5256 16.2106 96.3239 16.2106C97.0082 16.2106 97.5785 16.2106 98.0347 16.0965C98.4909 15.9825 98.9471 15.8684 99.2892 15.7544C99.6314 15.6403 99.9735 15.4122 100.202 15.2982C100.43 15.1841 100.658 15.0701 100.772 14.956L99.5173 13.0172V13.0172ZM93.8148 10.2799C93.8148 10.0518 93.8148 9.93779 93.9289 9.70968C94.0429 9.48158 94.157 9.36753 94.3851 9.13943C94.6132 9.02538 94.8413 8.79728 95.0694 8.68323C95.2975 8.56918 95.6396 8.56918 95.9818 8.56918C96.3239 8.56918 96.6661 8.56918 96.8942 8.68323C97.1223 8.79728 97.3504 8.91133 97.5785 9.13943C97.8066 9.25348 97.9206 9.48158 98.0347 9.70968C98.1487 9.93779 98.1487 10.1659 98.1487 10.2799H93.8148V10.2799Z" fill="white"/>
</svg>
