<svg width="261" height="122" viewBox="0 0 261 122" fill="none" xmlns="http://www.w3.org/2000/svg">
<path d="M0 119.3L1.9 118.9C1.9 119.5 2.1 120 2.8 120C3.4 120 3.7 119.6 3.7 119.4C3.7 119.2 3.5 119 3 118.8L2.3 118.6C0.8 118.2 0.3 117.5 0.3 116.6C0.3 115.3 1.4 114.4 2.9 114.4C4.9 114.4 5.5 115.7 5.7 116.4L3.8 116.6C3.8 116.2 3.4 115.7 2.9 115.7C2.5 115.7 2.2 115.9 2.2 116.3C2.2 116.7 2.4 116.7 2.8 116.9L3.7 117.1C5.2 117.5 5.7 118.2 5.7 119.3C5.7 120.4 4.8 121.5 2.9 121.5C0.7 121.6 0 120.3 0 119.3H0ZM13.5 121.6H11.5V114.9H13.5V115.6C13.9 115 14.8 114.7 15.5 114.7C16.4 114.7 17.2 115.1 17.5 115.8C18.1 115.1 18.6 114.7 19.5 114.7C20.8 114.7 22.1 115.4 22.1 117.3V121.6H20.1V117.7C20.1 117.1 19.7 116.6 19 116.6C18.3 116.6 17.9 117.2 17.9 117.7V121.6H15.7V117.7C15.7 117.1 15.3 116.6 14.6 116.6C13.9 116.6 13.5 117.2 13.5 117.7V121.6ZM27.9 119.5C27.9 118.2 28.8 117.6 29.9 117.5L31.6 117.3C32 117.3 32.2 117.1 32.2 116.7C32.2 116.3 31.8 116 31.3 116C30.6 116 30.2 116.6 30.2 116.9L28.3 116.5C28.3 115.6 29.2 114.3 31.3 114.3C33.5 114.3 34.3 115.6 34.3 116.9V121.3H32.4V120.6C32 121.2 31.3 121.5 30.5 121.5C28.9 121.6 27.9 120.6 27.9 119.5ZM30.7 120.3C31.3 120.3 31.8 119.9 31.8 119V118.6L30.5 118.8C30.1 118.8 29.8 119 29.8 119.5C30 119.9 30.2 120.3 30.7 120.3ZM42.4 121.6H40.4V111.8H42.4V121.6ZM51.1 121.6H49.1V111.8H51.1V121.6ZM67.7 121.4H65.8V111.8H67.8V115.5C68 115.1 68.7 114.8 69.7 114.8C71.6 114.8 72.7 116.3 72.7 118.3C72.7 120.3 71.4 121.8 69.6 121.8C68.7 121.8 68.1 121.4 67.7 120.9V121.4ZM70.7 117.9C70.7 116.8 70 116.2 69.2 116.2C68.4 116.2 67.7 116.8 67.7 117.9C67.7 119 68.4 119.6 69.2 119.6C70.1 119.5 70.7 119 70.7 117.9ZM82.9 121.4V120.6C82.5 121.2 81.8 121.3 81 121.3C79.3 121.3 78.4 120.2 78.4 118.7V114.4H80.4V118.3C80.4 119 80.8 119.4 81.5 119.4C82.2 119.4 82.6 118.8 82.6 118.3V114.4H84.6V121.3C84.7 121.4 82.9 121.4 82.9 121.4ZM90.8 119.3L92.7 118.9C92.7 119.5 93.1 119.8 93.8 119.8C94.4 119.8 94.5 119.4 94.5 119.2C94.5 119 94.3 118.8 93.8 118.6L93.1 118.4C91.6 118 91.1 117.3 91.1 116.4C91.1 115.1 92.2 114.2 93.7 114.2C95.7 114.2 96.3 115.5 96.5 116.2L94.8 116.6C94.8 116.2 94.4 115.7 93.9 115.7C93.5 115.7 93.2 115.9 93.2 116.3C93.2 116.7 93.4 116.7 93.8 116.9L94.7 117.1C96.2 117.5 96.7 118.2 96.7 119.3C96.7 120.4 95.8 121.5 93.9 121.5C91.6 121.6 90.8 120.3 90.8 119.3ZM104.6 121.2H102.6V114.7H104.6V121.2ZM102.3 112.5C102.3 111.9 102.9 111.4 103.4 111.4C103.9 111.4 104.5 112 104.5 112.5C104.5 113 103.9 113.6 103.4 113.6C102.9 113.6 102.3 113.2 102.3 112.5ZM113.2 117.7V121.6H111.2V114.9H113.2V115.6C113.6 115 114.3 114.7 115.1 114.7C116.8 114.7 117.5 115.8 117.5 117.3V121.6H115.5V117.7C115.5 117 115.1 116.6 114.4 116.6C113.6 116.6 113.2 117.1 113.2 117.7ZM125.2 117.3H127.8C127.8 116.9 127.4 116.4 126.5 116.4C125.8 116.4 125.5 116.9 125.2 117.3ZM128.2 119L129.9 119.6C129.5 120.7 128.6 121.8 126.9 121.8C125 121.8 123.4 120.5 123.4 118.1C123.4 115.9 125.1 114.6 126.7 114.6C128.7 114.6 130 115.9 130 118.1V118.7H125.4C125.4 119.4 126.1 120 126.9 120C127.5 119.7 128.1 119.5 128.2 119ZM135.6 119.3L137.5 118.9C137.5 119.5 137.9 119.8 138.6 119.8C139.2 119.8 139.3 119.4 139.3 119.2C139.3 119 139.1 118.8 138.6 118.6L137.9 118.4C136.4 118 135.9 117.3 135.9 116.4C135.9 115.1 137 114.2 138.5 114.2C140.5 114.2 141.1 115.5 141.3 116.2L139.6 116.6C139.6 116.2 139.2 115.7 138.7 115.7C138.3 115.7 138 115.9 138 116.3C138 116.7 138.2 116.7 138.6 116.9L139.5 117.1C141 117.5 141.5 118.2 141.5 119.3C141.5 120.4 140.6 121.5 138.7 121.5C136.4 121.6 135.6 120.3 135.6 119.3ZM146.4 119.3L148.3 118.9C148.3 119.5 148.7 119.8 149.4 119.8C150 119.8 150.1 119.4 150.1 119.2C150.1 119 149.9 118.8 149.4 118.6L148.7 118.4C147.2 118 146.7 117.3 146.7 116.4C146.7 115.1 147.8 114.2 149.3 114.2C151.3 114.2 151.9 115.5 152.1 116.2L150.4 116.6C150.4 116.2 150 115.7 149.5 115.7C149.1 115.7 148.8 115.9 148.8 116.3C148.8 116.7 149 116.7 149.4 116.9L150.3 117.1C151.8 117.5 152.3 118.2 152.3 119.3C152.3 120.4 151.4 121.5 149.5 121.5C147.1 121.6 146.6 120.3 146.4 119.3ZM165.4 119.3L167.3 118.9C167.3 119.5 167.7 119.8 168.4 119.8C169 119.8 169.1 119.4 169.1 119.2C169.1 119 168.9 118.8 168.4 118.6L167.7 118.4C166.2 118 165.7 117.3 165.7 116.4C165.7 115.1 166.8 114.2 168.3 114.2C170.3 114.2 170.9 115.5 171.1 116.2L169.4 116.6C169.4 116.2 169 115.7 168.5 115.7C168.1 115.7 167.8 115.9 167.8 116.3C167.8 116.7 168 116.7 168.4 116.9L169.3 117.1C170.8 117.5 171.3 118.2 171.3 119.3C171.3 120.4 170.4 121.5 168.5 121.5C166.2 121.6 165.6 120.3 165.4 119.3ZM180 119.5C180.7 119.5 181.5 118.9 181.5 117.8C181.5 116.7 180.9 116.3 180 116.3C179.3 116.3 178.5 116.9 178.5 118C178.5 119 179.3 119.5 180 119.5ZM180.2 114.3C182.2 114.3 183.9 115.8 183.9 117.8C183.9 119.9 182.2 121.5 180.2 121.5C178.2 121.5 176.5 120 176.5 117.8C176.7 115.8 178.2 114.3 180.2 114.3ZM191.8 121.6H189.8V111.8H191.8V121.6ZM202.6 121.4V120.6C202.2 121.2 201.5 121.3 200.7 121.3C199 121.3 198.1 120.2 198.1 118.7V114.4H200.1V118.3C200.1 119 200.5 119.4 201.2 119.4C201.9 119.4 202.3 118.8 202.3 118.3V114.4H204.3V121.3C204.4 121.4 202.6 121.4 202.6 121.4ZM213.5 112.7V114.7H214.8V116.6H213.5V119.2C213.5 119.8 213.9 119.9 214.2 119.9H214.8V121.6C214.8 121.6 214.4 121.8 213.7 121.8C212.2 121.8 211.5 121.1 211.5 119.6V116.6H210.2V114.7H210.6C211.3 114.7 211.7 114.1 211.7 113.6V112.7H213.5ZM222.9 121.2H220.9V114.7H222.9V121.2ZM220.7 112.5C220.7 111.9 221.3 111.4 221.8 111.4C222.3 111.4 222.9 112 222.9 112.5C222.9 113 222.3 113.6 221.8 113.6C221.3 113.6 220.7 113.2 220.7 112.5ZM232.8 119.5C233.5 119.5 234.3 118.9 234.3 117.8C234.3 116.7 233.6 116.1 232.8 116.1C232.1 116.1 231.3 116.7 231.3 117.8C231.3 119 232 119.5 232.8 119.5ZM232.5 114.3C234.5 114.3 236.2 115.8 236.2 117.8C236.2 119.9 234.5 121.5 232.5 121.5C230.5 121.5 228.8 120 228.8 117.8C228.9 115.8 230.5 114.3 232.5 114.3ZM244.2 117.7V121.6H242.2V114.9H244.2V115.6C244.6 115 245.3 114.7 246.1 114.7C247.8 114.7 248.5 115.8 248.5 117.3V121.6H246.4V117.7C246.4 117 246 116.6 245.3 116.6C244.6 116.6 244.2 117.1 244.2 117.7ZM254.2 119.3L256.1 118.9C256.1 119.5 256.5 119.8 257.2 119.8C257.8 119.8 257.9 119.4 257.9 119.2C257.9 119 257.7 118.8 257.2 118.6L256.5 118.4C255 118 254.5 117.3 254.5 116.4C254.5 115.1 255.6 114.2 257.1 114.2C259.1 114.2 259.7 115.5 259.9 116.2L258.2 116.6C258.2 116.2 257.8 115.7 257.3 115.7C256.9 115.7 256.6 115.9 256.6 116.3C256.6 116.7 256.8 116.7 257.2 116.9L258.1 117.1C259.6 117.5 260.1 118.2 260.1 119.3C260.1 120.4 259.2 121.5 257.3 121.5C255 121.6 254.4 120.3 254.2 119.3Z" fill="white"/>
<path fill-rule="evenodd" clip-rule="evenodd" d="M38 61.8L29.1 64.6C28.5 61.8 26.3 57.6 19.8 57.6C15 57.6 11.8 60.6 11.8 64.1C11.8 66.9 13.7 69.1 17.4 69.8L24.4 71.1C33.7 73 38.4 78.8 38.4 85.9C38.4 93.6 31.9 101.4 20.3 101.4C7 101.4 1.1 92.9 0.300003 85.7L9.3 83.3C9.7 88.3 13.2 92.7 20.4 92.7C25.6 92.7 28.6 90.1 28.6 86.6C28.6 83.6 26.4 81.4 22.5 80.7L15.5 79.2C7.3 77.2 2.2 72 2.2 64.4C2.2 55.5 10.2 48.7 19.8 48.7C32 48.7 36.7 56 38 61.8ZM79 101C65 101 53.3 90.8 53.3 74.9C53.3 59 65.5 48.6 78.8 48.6C92.7 48.6 99.9 57.1 101.9 65.2L92.6 68.2C91.3 63.4 87.4 58 78.7 58C71.1 58 63.2 63.4 63.2 74.8C63.2 85.5 70.8 91.4 78.7 91.4C87.2 91.4 91.5 85.8 92.7 81.1L101.7 83.9C100.4 91.8 93.3 101 79 101ZM152.1 99.7L147.8 88.2H127.3L123.2 99.7H112.9L132.1 49.7H143.6L162.8 99.7H152.1ZM137.7 60.7L130.7 79.4H144.6C144.5 79.4 137.7 60.7 137.7 60.7ZM210.9 99.7H178.5V48.3H188.3V90.5H210.9V99.7ZM259.6 99.7H227.9V48.7H259.6V58H237.8V70.6H257.6V79.3H237.8V90.9H259.6V99.7V99.7Z" fill="white"/>
<path d="M17.2 16.3C20 15.3 22 12.7 22 9.40001C22 4.40001 18.3 0.700012 12 0.700012H0.400002V32.7H13C19.1 32.7 23 29 23 23.8C22.9 20 20.3 17 17.2 16.3V16.3ZM6.5 5.90001H11.1C14.2 5.90001 15.9 7.20001 15.9 9.60001C15.9 12 14 13.5 11.1 13.5H6.5V5.90001ZM11.6 27.9H6.4V19.2H11.6C14.9 19.2 16.6 21.1 16.6 23.6C16.6 26.1 14.8 27.9 11.6 27.9V27.9ZM49.4 33.8C42.4 33.8 36.6 29.5 36.6 21.6V0.700012H43.1V21C43.1 25.3 45.5 27.5 49.4 27.5C53.3 27.5 55.7 25.3 55.7 21V0.700012H62.2V21.6C62.3 29.6 56.6 33.8 49.4 33.8V33.8ZM85.8 32.9H79.5V0.700012H85.8V32.9V32.9ZM125.8 32.9H105.6V0.700012H111.7V26.8H125.7L125.8 32.9V32.9ZM160.6 6.70001H150V32.8H143.5V6.70001H133V0.700012H160.4L160.6 6.70001V6.70001Z" fill="white"/>
<path d="M214.6 6.7H204V32.8H197.5V6.7H187.2V0.7H214.6V6.7ZM242.7 0C233.8 0 226.1 6.5 226.1 16.8C226.1 27.1 233.8 33.6 242.7 33.6C251.6 33.6 259.3 27.1 259.3 16.8C259.3 6.5 251.4 0 242.7 0ZM242.7 27.4C237.7 27.4 232.7 23.9 232.7 16.7C232.7 9.5 238 6 242.7 6C247.7 6 252.7 9.5 252.7 16.7C252.7 23.9 247.7 27.4 242.7 27.4Z" fill="white"/>
</svg>
