<svg width="261" height="39" viewBox="0 0 261 39" fill="none" xmlns="http://www.w3.org/2000/svg">
<path d="M9.99998 9.40002C11.6 8.90002 12.8 7.40002 12.8 5.40002C12.8 2.50002 10.6 0.400024 6.99998 0.400024H0.0999756V19H7.49998C11.1 19 13.3 16.9 13.3 13.9C13.3 11.6 11.9 9.80002 9.99998 9.40002ZM3.69998 3.50002H6.39998C8.19998 3.50002 9.19998 4.30002 9.19998 5.70002C9.09997 7.00002 7.99998 7.90002 6.29998 7.90002H3.69998V3.50002ZM6.69998 16.3H3.69998V11.3H6.79998C8.79998 11.3 9.79998 12.4 9.79998 13.9C9.79998 15.4 8.59998 16.3 6.69998 16.3ZM28.8 19.8C24.6 19.8 21.4 17.3 21.4 12.7V0.400024H25.2V12.3C25.2 14.8 26.6 16.1 28.9 16.1C31.2 16.1 32.6 14.8 32.6 12.3V0.400024H36.4V12.6C36.3 17.3 32.9 19.8 28.8 19.8ZM50 19.3H46.3V0.500024H50V19.3ZM73.3 19.3H61.6V0.500024H65.2V15.7H73.4C73.3 15.7 73.3 19.3 73.3 19.3ZM93.6 3.90002H87.5V19.1H83.7V3.90002H77.6V0.400024H93.6V3.90002Z" fill="white"/>
<path fill-rule="evenodd" clip-rule="evenodd" d="M177.4 5L174.1 6C173.9 5 173.1 3.4 170.6 3.4C168.8 3.4 167.6 4.5 167.6 5.8C167.6 6.8 168.3 7.7 169.7 8L172.3 8.5C175.8 9.2 177.5 11.4 177.5 14C177.5 16.9 175.1 19.8 170.8 19.8C165.9 19.8 163.7 16.6 163.4 14L166.8 13.1C166.9 15 168.3 16.7 171 16.7C173 16.7 174.1 15.7 174.1 14.4C174.1 13.3 173.3 12.4 171.8 12.2L169.2 11.6C166.1 10.8 164.3 8.9 164.3 6.1C164.3 2.8 167.3 0.3 170.8 0.3C175.2 0.1 176.9 2.9 177.4 5ZM192.7 19.7C187.5 19.7 183.1 15.9 183.1 10C183.1 4.1 187.6 0.2 192.6 0.2C197.7 0.2 200.4 3.4 201.2 6.4L197.7 7.5C197.2 5.7 195.7 3.7 192.6 3.7C189.7 3.7 186.8 5.7 186.8 9.9C186.8 13.9 189.7 16.1 192.6 16.1C195.8 16.1 197.3 14 197.8 12.2L201.2 13.2C200.7 16.2 198 19.7 192.7 19.7ZM216.7 0.6H212.5L205.4 19.2H209.3L210.8 15H218.4L220 19.2H224L216.7 0.6ZM212 11.6L214.6 4.7L217.2 11.6H212ZM241.8 19.2H229.7V0H233.4V15.7H241.8V19.2ZM259.9 19.2H248.1V0.1H259.9V3.6H251.8V8.2H259.2V11.5H251.8V15.8H259.9V19.2Z" fill="white"/>
<path fill-rule="evenodd" clip-rule="evenodd" d="M125.2 3.9H119.1V19.1H115.3V3.9H109.3V0.4H125.3L125.2 3.9C125.2 3.9 125.3 3.9 125.2 3.9ZM141.5 0C136.4 0 131.8 3.8 131.8 9.8C131.8 15.9 136.3 19.7 141.5 19.6C146.6 19.6 151.2 15.8 151.2 9.8C151.2 3.8 146.6 0 141.5 0ZM141.6 15.9C138.7 15.9 135.8 13.9 135.8 9.7C135.8 5.5 138.8 3.5 141.6 3.5C144.4 3.5 147.4 5.6 147.4 9.7C147.4 13.8 144.6 15.9 141.6 15.9Z" fill="white"/>
<path fill-rule="evenodd" clip-rule="evenodd" d="M0 35.5L1.9 35.1C1.9 35.7 2.1 36.2 2.8 36.2C3.4 36.2 3.7 35.8 3.7 35.6C3.7 35.4 3.5 35.2 3 35L2.3 34.8C0.8 34.4 0.2 33.7 0.2 32.7C0.2 31.4 1.3 30.5 2.8 30.5C4.9 30.5 5.4 31.8 5.6 32.6L3.7 32.8C3.7 32.4 3.3 31.9 2.8 31.9C2.4 31.9 2.1 32.1 2.1 32.5C2.1 32.9 2.3 32.9 2.7 33.1L3.6 33.3C5.1 33.7 5.7 34.4 5.7 35.5C5.7 36.6 4.8 37.7 2.9 37.7C0.7 37.7 0 36.4 0 35.5ZM13.5 37.7H11.4V31H13.5V31.7C13.9 31.1 14.8 30.8 15.6 30.8C16.5 30.8 17.3 31.2 17.7 31.9C18.3 31.2 18.8 30.8 19.8 30.8C21.1 30.8 22.4 31.5 22.4 33.4V37.6H20.3V33.7C20.3 33.1 19.9 32.6 19.2 32.6C18.5 32.6 18.1 33.2 18.1 33.7V37.6H15.9V33.7C15.9 33.1 15.5 32.6 14.8 32.6C14.1 32.6 13.7 33.2 13.7 33.7V37.6H13.5V37.7ZM28 35.7C28 34.4 28.9 33.8 30.1 33.6L31.8 33.4C32.2 33.4 32.4 33.2 32.4 32.8C32.4 32.4 32 32.1 31.5 32.1C30.8 32.1 30.4 32.7 30.4 33L28.5 32.6C28.5 31.7 29.4 30.4 31.5 30.4C33.7 30.4 34.5 31.7 34.5 33V37.4H32.6V36.7C32.2 37.3 31.5 37.6 30.7 37.6C28.9 37.7 28 36.8 28 35.7ZM30.7 36.4C31.3 36.4 31.8 36 31.8 35.1V34.7L30.5 34.9C30.1 34.9 29.8 35.1 29.8 35.6C29.9 36 30.1 36.4 30.7 36.4ZM42.4 37.7H40.3V27.9H42.4V37.7ZM51.1 37.7H49V27.9H51.1V37.7ZM67.7 37.5H65.8V27.9H67.9V31.6C68.1 31.2 68.8 30.9 69.8 30.9C71.7 30.9 72.8 32.4 72.8 34.5C72.8 36.6 71.5 38.1 69.6 38.1C68.7 38.1 68.1 37.7 67.7 37.2V37.5ZM70.7 34C70.7 32.9 70 32.3 69.2 32.3C68.5 32.3 67.7 32.9 67.7 34C67.7 35.1 68.4 35.7 69.2 35.7C70.1 35.7 70.7 35.1 70.7 34ZM82.9 37.5V36.8C82.5 37.4 81.8 37.5 81 37.5C79.3 37.5 78.4 36.4 78.4 34.9V30.7H80.5V34.6C80.5 35.3 80.9 35.7 81.6 35.7C82.3 35.7 82.7 35.1 82.7 34.6V30.7H84.8V37.5H82.9ZM90.8 35.5L92.7 35.1C92.7 35.7 93.1 36 93.8 36C94.4 36 94.5 35.6 94.5 35.4C94.5 35.2 94.3 35 93.8 34.8L93.1 34.6C91.6 34.2 91 33.5 91 32.5C91 31.2 92.1 30.3 93.6 30.3C95.7 30.3 96.2 31.6 96.4 32.4L94.7 32.8C94.7 32.4 94.3 31.9 93.8 31.9C93.4 31.9 93.1 32.1 93.1 32.5C93.1 32.9 93.3 32.9 93.7 33.1L94.6 33.3C96.1 33.7 96.7 34.4 96.7 35.5C96.7 36.6 95.8 37.7 93.9 37.7C91.6 37.7 90.8 36.4 90.8 35.5ZM104.6 37.3H102.5V30.8H104.6V37.3ZM102.3 28.6C102.3 28 102.9 27.5 103.4 27.5C104 27.5 104.5 28.1 104.5 28.6C104.5 29.2 103.9 29.7 103.4 29.7C102.9 29.7 102.3 29.4 102.3 28.6ZM113.2 33.8V37.7H111.1V31H113.2V31.7C113.6 31.1 114.3 30.8 115.1 30.8C116.8 30.8 117.5 31.9 117.5 33.4V37.6H115.4V33.7C115.4 33 115 32.6 114.3 32.6C113.5 32.7 113.2 33.2 113.2 33.8ZM125.2 33.4H127.8C127.8 33 127.4 32.5 126.5 32.5C125.8 32.5 125.4 33 125.2 33.4ZM128.2 35.1L129.9 35.7C129.5 36.8 128.6 37.9 126.9 37.9C125 37.9 123.3 36.6 123.3 34.2C123.3 32 125 30.6 126.7 30.6C128.8 30.6 130.1 31.9 130.1 34.2V34.8H125.5C125.5 35.5 126.2 36.1 127 36.1C127.5 35.8 128 35.7 128.2 35.1ZM135.6 35.5L137.5 35.1C137.5 35.7 137.9 36 138.6 36C139.2 36 139.3 35.6 139.3 35.4C139.3 35.2 139.1 35 138.6 34.8L137.9 34.6C136.4 34.2 135.8 33.5 135.8 32.5C135.8 31.2 136.9 30.3 138.4 30.3C140.5 30.3 141 31.6 141.2 32.4L139.5 32.8C139.5 32.4 139.1 31.9 138.6 31.9C138.2 31.9 137.9 32.1 137.9 32.5C137.9 32.9 138.1 32.9 138.5 33.1L139.4 33.3C140.9 33.7 141.5 34.4 141.5 35.5C141.5 36.6 140.6 37.7 138.7 37.7C136.4 37.7 135.6 36.4 135.6 35.5ZM146.4 35.5L148.3 35.1C148.3 35.7 148.7 36 149.4 36C150 36 150.1 35.6 150.1 35.4C150.1 35.2 149.9 35 149.4 34.8L148.7 34.6C147.2 34.2 146.6 33.5 146.6 32.5C146.6 31.2 147.7 30.3 149.2 30.3C151.3 30.3 151.8 31.6 152 32.4L150.3 32.8C150.3 32.4 149.9 31.9 149.4 31.9C149 31.9 148.7 32.1 148.7 32.5C148.7 32.9 148.9 32.9 149.3 33.1L150.2 33.3C151.7 33.7 152.3 34.4 152.3 35.5C152.3 36.6 151.4 37.7 149.5 37.7C147 37.7 146.6 36.4 146.4 35.5ZM165.3 35.5L167.2 35.1C167.2 35.7 167.6 36 168.3 36C168.9 36 169 35.6 169 35.4C169 35.2 168.8 35 168.3 34.8L167.6 34.6C166.1 34.2 165.5 33.5 165.5 32.5C165.5 31.2 166.6 30.3 168.1 30.3C170.2 30.3 170.7 31.6 170.9 32.4L169.2 32.8C169.2 32.4 168.8 31.9 168.3 31.9C167.9 31.9 167.6 32.1 167.6 32.5C167.6 32.9 167.8 32.9 168.2 33.1L169.1 33.3C170.6 33.7 171.2 34.4 171.2 35.5C171.2 36.6 170.3 37.7 168.4 37.7C166.1 37.7 165.5 36.4 165.3 35.5ZM180 35.7C180.7 35.7 181.5 35.1 181.5 34C181.5 32.9 180.9 32.5 180 32.5C179.3 32.5 178.5 33.1 178.5 34.2C178.5 35.1 179.3 35.7 180 35.7ZM180.2 30.4C182.3 30.4 183.9 31.9 183.9 34C183.9 36.1 182.2 37.7 180.2 37.7C178.1 37.7 176.5 36.2 176.5 34C176.7 31.9 178.2 30.4 180.2 30.4ZM191.8 37.7H189.7V27.9H191.8V37.7ZM202.6 37.5V36.8C202.2 37.4 201.5 37.5 200.7 37.5C199 37.5 198.1 36.4 198.1 34.9V30.7H200.2V34.6C200.2 35.3 200.6 35.7 201.3 35.7C202 35.7 202.4 35.1 202.4 34.6V30.7H204.5V37.5H202.6ZM213.5 28.8V30.9H214.8V32.8H213.5V35.4C213.5 36 213.9 36.1 214.2 36.1H214.8V37.8C214.8 37.8 214.4 38 213.7 38C212.2 38 211.5 37.3 211.5 35.8V32.8H210.2V30.9H210.6C211.3 30.9 211.7 30.3 211.7 29.8V28.9L213.5 28.8ZM222.9 37.3H220.8V30.8H222.9V37.3ZM220.7 28.6C220.7 28 221.3 27.5 221.8 27.5C222.4 27.5 222.9 28.1 222.9 28.6C222.9 29.2 222.3 29.7 221.8 29.7C221.3 29.7 220.7 29.4 220.7 28.6ZM232.7 35.7C233.4 35.7 234.2 35.1 234.2 34C234.2 32.9 233.5 32.3 232.7 32.3C232 32.3 231.2 32.9 231.2 34C231.2 35.1 231.9 35.7 232.7 35.7ZM232.5 30.4C234.6 30.4 236.2 31.9 236.2 34C236.2 36.1 234.5 37.7 232.5 37.7C230.4 37.7 228.8 36.2 228.8 34C228.9 31.9 230.5 30.4 232.5 30.4ZM244.2 33.8V37.7H242.1V31H244.2V31.7C244.6 31.1 245.3 30.8 246.1 30.8C247.8 30.8 248.5 31.9 248.5 33.4V37.6H246.4V33.7C246.4 33 246 32.6 245.3 32.6C244.6 32.7 244.2 33.2 244.2 33.8ZM254.2 35.5L256.1 35.1C256.1 35.7 256.5 36 257.2 36C257.8 36 257.9 35.6 257.9 35.4C257.9 35.2 257.7 35 257.2 34.8L256.5 34.6C255 34.2 254.4 33.5 254.4 32.5C254.4 31.2 255.5 30.3 257 30.3C259.1 30.3 259.6 31.6 259.8 32.4L258.1 32.8C258.1 32.4 257.7 31.9 257.2 31.9C256.8 31.9 256.5 32.1 256.5 32.5C256.5 32.9 256.7 32.9 257.1 33.1L258 33.3C259.5 33.7 260.1 34.4 260.1 35.5C260.1 36.6 259.2 37.7 257.3 37.7C254.9 37.7 254.4 36.4 254.2 35.5Z" fill="white"/>
</svg>
