<svg width="71" height="15" viewBox="0 0 71 15" fill="none" xmlns="http://www.w3.org/2000/svg">
<path fill-rule="evenodd" clip-rule="evenodd" d="M50.0146 3.60385C49.1022 3.60385 48.3039 2.91955 48.3039 2.00714C48.3039 1.09474 48.9882 0.410431 50.0146 0.410431C51.0411 0.410431 51.7254 1.09474 51.7254 2.00714C51.7254 2.91955 50.9271 3.60385 50.0146 3.60385ZM0.63063 13.8684H3.71L4.05216 5.31462L7.24558 10.3329H8.95634L11.9217 5.20057L12.3779 13.7544H15.6853L14.887 0.752583H11.8076L8.15799 6.91133L4.39431 0.752583H1.31494L0.63063 13.8684V13.8684ZM25.6078 11.0172C25.3797 11.1312 25.0375 11.3593 24.4673 11.5874C24.0111 11.8155 23.3267 11.9296 22.5284 11.9296C21.73 11.9296 21.0457 11.7015 20.5895 11.3593C20.1333 11.0172 19.9052 10.561 19.9052 10.1048H27.0904V9.64855C27.0904 8.85019 26.9764 8.16589 26.7483 7.48158C26.5202 6.79728 26.178 6.22702 25.8359 5.77082C25.3797 5.31462 24.9235 4.97246 24.2392 4.63031C23.6689 4.40221 22.8705 4.28816 22.0722 4.28816C21.2738 4.28816 20.4755 4.40221 19.9052 4.74436C19.2209 4.97246 18.7647 5.31462 18.3085 5.77082C17.8523 6.22702 17.5102 6.68323 17.2821 7.36753C17.054 7.93779 16.9399 8.62209 16.9399 9.19235C16.9399 9.87665 17.054 10.561 17.2821 11.2453C17.5102 11.8155 17.8523 12.3858 18.4226 12.842C18.8788 13.2982 19.449 13.6403 20.1333 13.8684C20.8176 14.0965 21.616 14.2106 22.4143 14.2106C23.0986 14.2106 23.6689 14.2106 24.1251 14.0965C24.5813 13.9825 25.0375 13.8684 25.3797 13.7544C25.7218 13.6403 26.064 13.4122 26.2921 13.2982C26.5202 13.1841 26.7483 13.0701 26.8623 12.956L25.6078 11.0172V11.0172ZM19.9052 8.27994C19.9052 8.05184 19.9052 7.93779 20.0193 7.70968C20.1333 7.48158 20.2474 7.36753 20.4755 7.13943C20.7036 7.02538 20.9317 6.79728 21.1598 6.68323C21.3879 6.56918 21.73 6.56918 22.0722 6.56918C22.4143 6.56918 22.7565 6.56918 22.9846 6.68323C23.2127 6.79728 23.4408 6.91133 23.6689 7.13943C23.897 7.25348 24.0111 7.48158 24.0111 7.70968C24.1251 7.93779 24.1251 8.16589 24.1251 8.27994H19.9052V8.27994ZM37.5831 13.8684H47.0493V11.4734H40.8906V0.752583H37.5831V13.8684V13.8684ZM48.4179 13.8684H51.4973V4.63031H48.3039V13.8684H48.4179ZM62.104 1.32284C61.6478 0.980685 61.0776 0.752583 60.6214 0.524482C59.9371 0.524482 59.4809 0.410431 58.9106 0.410431C58.3404 0.410431 57.8842 0.524482 57.428 0.638533C56.9717 0.752583 56.5155 0.980685 56.0593 1.32284C55.7172 1.66499 55.375 2.00714 55.1469 2.46335C54.9188 2.91955 54.8048 3.4898 54.8048 4.17411V4.63031H53.094V6.79728H54.6907V13.7544H57.7701V6.91133H60.1652V4.63031H57.7701V4.17411C57.7701 3.7179 57.8842 3.37575 58.1123 3.14765C58.4544 2.8055 58.7966 2.69145 59.2528 2.69145C59.4809 2.69145 59.823 2.69145 60.0511 2.8055L60.7354 3.14765L62.104 1.32284V1.32284ZM35.188 11.3593L34.5037 11.7015C34.2756 11.8155 34.0475 11.8155 33.7054 11.8155C33.2492 11.8155 33.0211 11.7015 32.793 11.4734C32.6789 11.2453 32.5649 10.9031 32.5649 10.4469V6.91133H35.188V4.63031H32.5649V2.23524H29.4855V4.74436H27.8888V6.91133H29.4855V10.3329C29.4855 10.9031 29.5995 11.4734 29.7136 11.9296C29.8276 12.3858 30.0558 12.842 30.3979 13.1841C30.7401 13.5263 31.0822 13.7544 31.5384 13.9825C31.9946 14.2106 32.6789 14.2106 33.3632 14.2106C34.5037 14.2106 35.5302 13.8684 36.5566 13.1841L35.188 11.3593V11.3593ZM69.5173 11.0172C69.2892 11.1312 68.9471 11.3593 68.3768 11.5874C67.9206 11.8155 67.2363 11.9296 66.438 11.9296C65.6396 11.9296 64.9553 11.7015 64.4991 11.3593C64.0429 11.0172 63.8148 10.561 63.8148 10.1048H71V9.64855C71 8.85019 70.886 8.16589 70.6579 7.48158C70.4298 6.79728 70.0876 6.22702 69.7454 5.77082C69.2892 5.31462 68.833 4.97246 68.1487 4.63031C67.5785 4.40221 66.7801 4.28816 65.9818 4.28816C65.1834 4.28816 64.3851 4.40221 63.8148 4.74436C63.1305 4.97246 62.6743 5.31462 62.2181 5.77082C61.7619 6.22702 61.4197 6.68323 61.1916 7.36753C60.9635 7.93779 60.8495 8.62209 60.8495 9.19235C60.8495 9.87665 60.9635 10.561 61.1916 11.2453C61.4197 11.8155 61.7619 12.3858 62.3321 12.842C62.7883 13.2982 63.3586 13.6403 64.0429 13.8684C64.7272 14.0965 65.5256 14.2106 66.3239 14.2106C67.0082 14.2106 67.5785 14.2106 68.0347 14.0965C68.4909 13.9825 68.9471 13.8684 69.2892 13.7544C69.6314 13.6403 69.9735 13.4122 70.2017 13.2982C70.4298 13.1841 70.6579 13.0701 70.7719 12.956L69.5173 11.0172V11.0172ZM63.8148 8.27994C63.8148 8.05184 63.8148 7.93779 63.9289 7.70968C64.0429 7.48158 64.157 7.36753 64.3851 7.13943C64.6132 7.02538 64.8413 6.79728 65.0694 6.68323C65.2975 6.56918 65.6396 6.56918 65.9818 6.56918C66.3239 6.56918 66.6661 6.56918 66.8942 6.68323C67.1223 6.79728 67.3504 6.91133 67.5785 7.13943C67.8066 7.25348 67.9206 7.48158 68.0347 7.70968C68.1487 7.93779 68.1487 8.16589 68.1487 8.27994H63.8148V8.27994Z" fill="white"/>
</svg>
